<?xml version="1.0" standalone="no"?>
<!DOCTYPE svg PUBLIC "-//W3C//DTD SVG 20010904//EN"
 "http://www.w3.org/TR/2001/REC-SVG-20010904/DTD/svg10.dtd">
<svg version="1.0" xmlns="http://www.w3.org/2000/svg"
 width="111.000000pt" height="111.000000pt" viewBox="0 0 111.000000 111.000000"
 preserveAspectRatio="xMidYMid meet">
<metadata>
Created by potrace 1.14, written by Peter Selinger 2001-2017
</metadata>
<g transform="translate(0.000000,111.000000) scale(0.100000,-0.100000)"
fill="#000000" stroke="none">
<path d="M1090 1101 c0 -6 5 -13 10 -16 6 -3 10 1 10 9 0 9 -4 16 -10 16 -5 0
-10 -4 -10 -9z"/>
<path d="M836 681 c-15 -17 -17 -30 -11 -80 4 -34 11 -64 16 -67 5 -3 9 -12 9
-21 0 -20 29 -42 56 -43 22 0 54 38 54 64 0 8 5 16 11 18 7 2 9 22 4 60 -8 61
-19 71 -86 82 -28 5 -40 2 -53 -13z"/>
<path d="M258 584 c-20 -13 -39 -27 -42 -32 -3 -5 0 -52 6 -106 11 -91 14 -98
39 -112 55 -28 103 -11 113 39 3 12 7 34 10 49 4 15 1 30 -4 33 -8 5 -7 12 2
22 10 12 9 17 -5 24 -10 6 -17 22 -17 39 0 17 -5 30 -12 30 -6 0 -21 9 -32 19
-21 19 -22 18 -58 -5z"/>
<path d="M635 479 c-22 -5 -54 -16 -72 -24 -17 -8 -35 -15 -40 -15 -23 0 -44
-39 -41 -75 3 -37 7 -40 81 -77 13 -6 26 -4 41 6 13 8 51 18 86 22 37 4 64 12
67 20 3 8 11 14 17 14 7 0 23 11 36 25 l23 25 -37 35 c-21 19 -46 35 -56 35
-10 0 -22 5 -25 10 -7 12 -25 11 -80 -1z"/>
<path d="M375 270 c-3 -6 1 -13 9 -16 21 -8 20 -30 -4 -64 -23 -32 -20 -38 18
-32 17 2 35 15 48 35 19 30 19 34 5 59 -16 29 -63 39 -76 18z"/>
</g>
</svg>
